Coordinates
version=1
nRows=24
nColumns=24
inDegrees=yes

Units are S.I. units (second, meters, Newtons, ...)
Angles are in degrees.

endheader
time	pelvis_tilt	pelvis_list	pelvis_rotation	pelvis_tx	pelvis_ty	pelvis_tz	hip_flexion_r	hip_adduction_r	hip_rotation_r	knee_angle_r	ankle_angle_r	subtalar_angle_r	mtp_angle_r	hip_flexion_l	hip_adduction_l	hip_rotation_l	knee_angle_l	ankle_angle_l	subtalar_angle_l	mtp_angle_l	lumbar_extension	lumbar_bending	lumbar_rotation
      0.41700000	      0.75954614	     -0.10803309	      2.40451389	     -0.72050226	      0.89621057	      0.30321970	     28.84462040	      0.90624282	     -6.94282983	    -22.89176056	      2.42018841	      1.44162203	      0.82927769	    -17.55376699	      0.92252695	     -1.28181661	     -6.31279589	     18.44776343	      1.12738647	      1.39175177	    -10.45257024	     -1.02188520	     -8.57733444
      0.42116667	      0.70452769	     -0.13705895	      2.54270226	     -0.71472783	      0.89481018	      0.30346275	     28.83861945	      0.99378024	     -6.77710317	    -22.66306615	      2.39297201	      1.26940836	      1.96305477	    -17.57575156	      0.76949935	     -1.45203523	     -6.99196620	     18.84358208	      1.63987944	      3.16416527	    -10.36643862	     -0.95270333	     -8.68887922
      0.42533333	      0.60539858	     -0.12806494	      2.65752268	     -0.70892231	      0.89336345	      0.30372651	     28.90444397	      1.05100673	     -6.57370992	    -22.58963631	      2.43379442	      1.05735128	      2.00071964	    -17.63132264	      0.69579259	     -1.26553225	     -7.50621025	     19.07935574	      1.56436553	      3.25491189	    -10.19412486	     -0.92998042	     -8.69803876
      0.42950000	      0.47623751	     -0.14856715	      2.78513969	     -0.70311640	      0.89193697	      0.30405903	     28.97621260	      1.14943979	     -6.35048183	    -22.54212074	      2.30713859	      0.69122873	      2.09396880	    -17.55607632	      0.55838931	     -1.30665671	     -8.21868811	     19.33944689	      1.91586259	      3.50616541	    -10.00684893	     -0.91093557	     -8.79016507
      0.43366667	      0.41898574	     -0.20593009	      2.89970258	     -0.69725165	      0.89061016	      0.30440658	     28.97891721	      1.28603514	     -6.18092441	    -22.61780923	      2.29391417	      0.40116414	      2.28120930	    -17.53338064	      0.37039956	     -1.46989881	     -9.00261610	     19.70912512	      2.45796170	      4.02348986	     -9.91212779	     -0.81056117	     -8.81061030
      0.43783333	      0.32575560	     -0.26450867	      3.01602106	     -0.69137027	      0.88928147	      0.30476350	     29.03086536	      1.41904550	     -6.04666695	    -22.79612422	      2.18465953	      0.03577968	      2.49072287	    -17.45290888	      0.18431224	     -1.57627570	     -9.81973182	     19.99082932	      2.84801153	      4.67435653	     -9.76612778	     -0.70757472	     -8.82074583
      0.44200000	      0.21614837	     -0.32831910	      3.13332972	     -0.68546982	      0.88798367	      0.30515669	     29.09481491	      1.56414792	     -5.89885269	    -23.04221490	      2.09040737	     -0.35121926	      2.71471280	    -17.32754296	     -0.01052810	     -1.65260162	    -10.69200678	     20.21643819	      3.20209951	      5.45066686	     -9.59413648	     -0.61511644	     -8.80561173
      0.44616667	      0.07257299	     -0.36235648	      3.23470587	     -0.67955450	      0.88668046	      0.30556341	     29.22851002	      1.67997340	     -5.75240344	    -23.43839377	      2.05208245	     -0.76763062	      2.74895066	    -17.19415776	     -0.14432870	     -1.53007070	    -11.49775726	     20.32120949	      3.22472046	      5.59037124	     -9.38273415	     -0.54819539	     -8.76010812
      0.45033333	     -0.02721536	     -0.44931348	      3.30973507	     -0.67358024	      0.88547219	      0.30606356	     29.30142065	      1.87000598	     -5.61508123	    -23.86167285	      1.95317825	     -1.21646496	      3.59585881	    -17.02857589	     -0.37026478	     -1.74034738	    -12.48004186	     20.42400069	      3.63656761	      9.02506628	     -9.20032272	     -0.42943472	     -8.65528403
      0.45450000	     -0.15854058	     -0.51042148	      3.39724791	     -0.66762257	      0.88429422	      0.30653975	     29.42604275	      2.02340881	     -5.49712944	    -24.38646639	      1.87347547	     -1.69324092	      3.58628637	    -16.83232301	     -0.54628881	     -1.72254666	    -13.44804527	     20.47288122	      3.77592159	      9.07876718	     -8.99355649	     -0.34247058	     -8.65044644
      0.45866667	     -0.27982401	     -0.59320942	      3.47576670	     -0.66164420	      0.88318105	      0.30706100	     29.54450828	      2.20792988	     -5.37444547	    -24.97651333	      1.88352854	     -2.15455249	      3.58818965	    -16.61904828	     -0.74769364	     -1.70951133	    -14.47500000	     20.52763642	      3.94854799	      9.16074930	     -8.80875326	     -0.21993768	     -8.56516391
      0.46283333	     -0.39048202	     -0.68331491	      3.52558353	     -0.65562971	      0.88213674	      0.30763390	     29.66073750	      2.40924371	     -5.26580781	    -25.62469330	      1.85945524	     -2.62189131	      3.59576343	    -16.37891922	     -0.96189121	     -1.81326693	    -15.58284813	     20.49630265	      4.18612644	      9.30448937	     -8.60914666	     -0.10323904	     -8.46104825
      0.46700000	     -0.49119720	     -0.78780385	      3.57582214	     -0.64960168	      0.88118363	      0.30823061	     29.76489324	      2.63025602	     -5.14635810	    -26.31592722	      1.96099672	     -3.05802527	      3.60846498	    -16.13699213	     -1.18414085	     -1.82152428	    -16.70722919	     20.41612910	      4.32575141	      9.46393481	     -8.44531865	      0.04330901	     -8.34085789
      0.47116667	     -0.54426793	     -0.95865127	      3.65426535	     -0.64353248	      0.88040485	      0.30883139	     29.78088444	      2.90916595	     -5.10445675	    -26.95439192	      1.95808740	     -3.56661563	      3.75814984	    -15.87664886	     -1.51540085	     -1.95375309	    -17.95934161	     20.26700938	      4.60830244	     12.32944574	     -8.30558654	      0.27254915	     -8.20946326
      0.47533333	     -0.62983188	     -1.02149707	      3.63001202	     -0.63748939	      0.87958032	      0.30951352	     29.90602746	      3.11420478	     -4.93245767	    -27.78971934	      2.24692128	     -3.89721510	      3.76649167	    -15.62427486	     -1.65864391	     -1.95026628	    -19.13594738	     19.99186347	      4.53531621	     12.40138489	     -8.14369654	      0.36667942	     -8.07326800
      0.47950000	     -0.71461702	     -1.13248349	      3.64629269	     -0.63144345	      0.87886830	      0.31016259	     30.00702133	      3.34249938	     -4.85019641	    -28.59139277	      2.45450745	     -4.22411406	      3.76993420	    -15.30565542	     -1.87291784	     -1.93967600	    -20.42294521	     19.67694196	      4.51551375	     12.51965945	     -7.99758650	      0.51807466	     -7.90387761
      0.48366667	     -0.72836624	     -1.28724047	      3.62757799	     -0.62534935	      0.87830379	      0.31089790	     30.01744699	      3.63747764	     -4.76541476	    -29.37784499	      2.68089348	     -4.57618886	      3.73284190	    -15.01642140	     -2.16754724	     -2.16277300	    -21.80947203	     19.35272994	      4.76777224	     13.51679443	     -7.91017261	      0.72599638	     -7.63328567
      0.48783333	     -0.80456699	     -1.38896881	      3.63286907	     -0.61933380	      0.87777977	      0.31155333	     30.08900408	      3.85508081	     -4.67591475	    -30.16898983	      2.96283718	     -4.83686835	      3.72667811	    -14.63768402	     -2.35341818	     -2.07717521	    -23.20679380	     18.87271312	      4.52202294	     13.72544888	     -7.76787553	      0.85933729	     -7.50721518
      0.49200000	     -0.83642821	     -1.51627790	      3.61386769	     -0.61328316	      0.87737889	      0.31224360	     30.10036781	      4.10721594	     -4.59842162	    -30.94943031	      3.31070716	     -5.05245066	      3.71020147	    -14.27109207	     -2.57981900	     -2.10715471	    -24.66503681	     18.33882987	      4.41327686	     14.03037381	     -7.66993997	      1.03524610	     -7.30244960
      0.49616667	     -0.79622282	     -1.69380324	      3.58925246	     -0.60720867	      0.87717026	      0.31296104	     29.99103021	      4.42480437	     -4.51553638	    -31.64944873	      3.69836444	     -5.30609970	      3.17446880	    -13.95259679	     -2.87719218	     -2.20467246	    -26.15973590	     17.68687100	      4.26577665	     19.24354614	     -7.66295390	      1.28880252	     -7.11504331
      0.50033333	     -0.76099829	     -1.85068987	      3.55952229	     -0.60114439	      0.87704904	      0.31363469	     29.87363416	      4.70671439	     -4.45792406	    -32.33555346	      4.13040950	     -5.42741075	      3.18595337	    -13.60139733	     -3.13104422	     -2.23669908	    -27.68877610	     16.94677072	      4.06870242	     19.26723758	     -7.65271946	      1.52579333	     -6.96157301
      0.50450000	     -0.72493688	     -2.01388384	      3.52228796	     -0.59512232	      0.87698516	      0.31431567	     29.73412274	      4.99431540	     -4.40328135	    -32.97412703	      4.55737009	     -5.53469799	      3.18952826	    -13.19650599	     -3.39923345	     -2.31236990	    -29.30862806	     16.19525043	      3.88646601	     19.32712134	     -7.64714122	      1.76064678	     -6.75918142
      0.50866667	     -0.65998469	     -2.19460189	      3.48265481	     -0.58910101	      0.87704373	      0.31499297	     29.52870618	      5.29949231	     -4.36430605	    -33.54662071	      5.00140124	     -5.62309010	      3.18809619	    -12.79230796	     -3.69108416	     -2.40719333	    -30.96605061	     15.38481336	      3.68523436	     19.40216013	     -7.67081867	      2.01643728	     -6.56105091
      0.51283333	     -0.55564637	     -2.37214121	      3.43958011	     -0.58309576	      0.87722660	      0.31564174	     29.25322587	      5.59222239	     -4.36099061	    -34.06785681	      5.45998909	     -5.71045270	      3.18852985	    -12.39358978	     -3.98801592	     -2.54661536	    -32.66561206	     14.50119891	      3.44725883	     19.45944403	     -7.73564508	      2.26289361	     -6.39507099
